<svg width="40" height="37" viewBox="0 0 40 37" fill="none" xmlns="http://www.w3.org/2000/svg">
<g clip-path="url(#clip0_949_931)">
<path d="M24.7756 36.1194C21.0651 36.1194 17.3544 36.1013 13.6441 36.1251C10.6611 36.1442 7.67934 36.2304 4.69663 36.251C3.85748 36.251 3.01948 36.1882 2.18968 36.0636C0.402226 35.8073 -0.308957 34.7511 0.286297 33.047C0.693343 31.9056 1.22528 30.8124 1.87242 29.7873C4.61429 25.3967 8.60375 22.5457 13.3849 20.7089C15.9806 19.691 18.7393 19.1495 21.5281 19.1103C25.6976 19.0741 29.5359 20.1298 32.8137 22.8737C35.0513 24.7213 36.8801 27.0121 38.1842 29.6008C38.5473 30.3244 38.9562 31.0311 39.2471 31.7829C39.5262 32.4771 39.7213 33.202 39.8284 33.9422C39.9717 35.0511 39.3523 35.7864 38.2427 35.9258C37.4684 36.0308 36.6884 36.0891 35.9069 36.1006C32.1966 36.1175 28.4859 36.1085 24.7756 36.1085V36.1194ZM36.9656 33.4128C36.98 33.2948 36.9788 33.1755 36.962 33.0579C35.7801 29.996 34.1471 27.2286 31.624 25.0609C29.6776 23.3886 27.4942 22.1851 24.9006 21.8587C21.912 21.4828 18.9506 21.5616 16.0295 22.3827C10.5031 23.936 6.09375 26.9938 3.07426 31.9234C2.7307 32.484 2.45798 33.0878 2.14205 33.6897C2.23807 33.7421 2.33826 33.7865 2.44156 33.8227C3.47546 34.0493 4.50648 33.916 5.54919 33.8578C7.71614 33.7366 9.88904 33.6846 12.0597 33.6734C19.1613 33.6369 26.263 33.6396 33.3647 33.6058C34.5468 33.5996 35.7269 33.4819 36.9661 33.4128H36.9656Z" fill="#FDBD29"/>
<path d="M20.7259 0.118745C23.5847 0.0492769 25.9732 1.41055 27.7866 3.88453C28.2141 4.46783 28.7298 5.00937 29.042 5.64913C29.7397 7.07906 30.3176 8.54802 29.9468 10.2169C29.5986 11.7841 29.1447 13.2932 28.1332 14.5778C26.3344 16.8596 24.041 18.2703 21.11 18.6211C18.4717 18.937 15.9631 18.547 13.6209 17.3086C11.2085 16.0332 9.83596 13.9693 9.33765 11.3175C8.58765 7.32551 10.6811 3.74527 13.9841 1.84174C15.9829 0.689509 18.1413 0.108773 20.7259 0.118745ZM26.99 8.2291C27.121 7.22274 26.7173 6.41904 26.0917 5.68667C25.8476 5.40085 25.6269 5.09422 25.3729 4.81787C24.4532 3.8176 23.4046 3.02625 22.0096 2.81683C20.0541 2.49396 18.0464 2.75651 16.2405 3.57133C13.9833 4.60693 12.2994 6.18577 11.9114 8.81103C11.4589 11.8736 13.0431 14.6143 15.8605 15.519C17.5488 16.0455 19.3315 16.2002 21.0856 15.9724C23.4834 15.6986 26.3059 13.2396 26.6871 10.7157C26.8117 9.89024 26.8903 9.05767 26.99 8.22828V8.2291Z" fill="#FDBD29"/>
</g>
<defs>
<clipPath id="clip0_949_931">
<rect width="40" height="36.3399" fill="white"/>
</clipPath>
</defs>
</svg>
